<svg width="1996" height="3000" viewBox="0 0 1996 3000" fill="none" xmlns="http://www.w3.org/2000/svg">
<path d="M717.21 2953.62C655.377 3015.46 555.124 3015.46 493.29 2953.63L46.3813 2506.72C-15.452 2444.88 -15.452 2344.63 46.3813 2282.8L829.078 1500.1L1201.34 1872.36C1366.23 2037.25 1366.23 2304.58 1201.35 2469.47L717.21 2953.62Z" fill="white" fill-opacity="0.5"/>
<path d="M1872.26 1798.56C2037.14 1633.67 2037.14 1366.33 1872.26 1201.45L717.203 46.3749C655.37 -15.458 555.116 -15.4584 493.283 46.3749L46.3772 493.281C-15.4559 555.114 -15.456 655.367 46.3772 717.2L829.182 1500.01L829.073 1500.11L1201.32 1872.37C1366.21 2037.26 1366.21 2304.6 1201.33 2469.49L1872.26 1798.56Z" fill="white"/>
</svg>
